<svg xmlns="http://www.w3.org/2000/svg" viewBox="0 0 200 50"><defs><clipPath id="edge"><path d="m5 7 6 2 5-4 170 1 3 5 5-2-3 8 4 4-5 5 4 5-3 4 3 9-181-1-5-4-6 2 4-10-3-5 4-5-4-5Z"/></clipPath><linearGradient id="paper"><stop stop-color="#f7d7ea"/><stop offset=".5" stop-color="#f7d7ea"/><stop offset="1" stop-color="#c6a6de"/></linearGradient></defs><g clip-path="url(#edge)"><rect width="200" height="50" fill="url(#paper)" fill-opacity=".88"/><path d="M8 9 34 37m2-28 26 28m2-28 26 28m2-28 26 28m2-28 26 28m2-28 26 28m2-28 26 28" stroke="#fff7" stroke-width="9"/><path d="M8 10h179M9 39h180" stroke="#76539e" stroke-opacity=".22" fill="none"/></g></svg>